<svg width="42" height="42" viewBox="0 0 42 42" fill="none" xmlns="http://www.w3.org/2000/svg">
<path d="M36.2126 4.78613H6.75349C6.04503 4.78613 5.47266 5.3585 5.47266 6.06696V35.5261C5.47266 36.2345 6.04503 36.8069 6.75349 36.8069H36.2126C36.9211 36.8069 37.4934 36.2345 37.4934 35.5261V6.06696C37.4934 5.3585 36.9211 4.78613 36.2126 4.78613ZM32.5142 14.1322H29.9565C27.9512 14.1322 27.563 15.0848 27.563 16.4857V19.5717H32.3501L31.7257 24.4029H27.563V36.8069H22.5718V24.4069H18.397V19.5717H22.5718V16.0094C22.5718 11.8747 25.0974 9.62127 28.7878 9.62127C30.5569 9.62127 32.0739 9.75336 32.5182 9.8134V14.1322H32.5142Z" fill="white"/>
</svg>
