<svg width="42" height="42" viewBox="0 0 42 42" fill="none" xmlns="http://www.w3.org/2000/svg">
<path d="M36.197 4.78613H6.73786C6.0294 4.78613 5.45703 5.3585 5.45703 6.06696V35.5261C5.45703 36.2345 6.0294 36.8069 6.73786 36.8069H36.197C36.9054 36.8069 37.4778 36.2345 37.4778 35.5261V6.06696C37.4778 5.3585 36.9054 4.78613 36.197 4.78613ZM14.9552 32.0718H10.2041V16.7899H14.9552V32.0718ZM12.5817 14.7006C12.037 14.7006 11.5046 14.5391 11.0517 14.2365C10.5989 13.9339 10.2459 13.5038 10.0375 13.0006C9.82906 12.4974 9.77453 11.9437 9.88078 11.4095C9.98704 10.8754 10.2493 10.3847 10.6344 9.99956C11.0196 9.61443 11.5102 9.35216 12.0444 9.24591C12.5786 9.13965 13.1323 9.19418 13.6355 9.40261C14.1387 9.61104 14.5688 9.964 14.8713 10.4169C15.1739 10.8697 15.3354 11.4021 15.3354 11.9468C15.3314 13.4678 14.0986 14.7006 12.5817 14.7006ZM32.7427 32.0718H27.9957V24.639C27.9957 22.8659 27.9636 20.5884 25.5261 20.5884C23.0565 20.5884 22.6762 22.5176 22.6762 24.5109V32.0718H17.9331V16.7899H22.4881V18.8793H22.5521C23.1845 17.6785 24.7335 16.4097 27.047 16.4097C31.8582 16.4097 32.7427 19.5757 32.7427 23.6904V32.0718Z" fill="white"/>
</svg>
