<svg width="41" height="42" viewBox="0 0 41 42" fill="none" xmlns="http://www.w3.org/2000/svg">
<path d="M37.1455 10.4817C35.9207 11.01 34.5878 11.3903 33.2149 11.5384C34.6403 10.6916 35.7077 9.35375 36.2168 7.77592C34.8793 8.5716 33.414 9.12954 31.886 9.42499C31.2474 8.74226 30.475 8.19836 29.617 7.82719C28.7589 7.45602 27.8337 7.26553 26.8988 7.26759C23.1163 7.26759 20.0744 10.3336 20.0744 14.096C20.0744 14.6244 20.1384 15.1527 20.2425 15.661C14.5788 15.3648 9.52753 12.6591 6.16936 8.5164C5.55746 9.56154 5.2368 10.7516 5.24075 11.9626C5.24075 14.3322 6.44553 16.4215 8.28273 17.6503C7.20004 17.6077 6.14271 17.3101 5.19672 16.7818V16.8658C5.19672 20.184 7.54225 22.9338 10.6683 23.5662C10.0813 23.7186 9.47753 23.7966 8.87111 23.7983C8.42682 23.7983 8.00655 23.7543 7.58227 23.6943C8.44683 26.4 10.9645 28.3653 13.9624 28.4293C11.6169 30.2665 8.67898 31.3472 5.48891 31.3472C4.91654 31.3472 4.3882 31.3272 3.83984 31.2632C6.86581 33.2044 10.4561 34.3252 14.3226 34.3252C26.8748 34.3252 33.7432 23.9264 33.7432 14.9005C33.7432 14.6044 33.7432 14.3082 33.7232 14.012C35.0521 13.0393 36.2168 11.8346 37.1455 10.4817Z" fill="white"/>
</svg>
